<?xml version="1.0" standalone="no"?>
<!DOCTYPE svg PUBLIC "-//W3C//DTD SVG 20010904//EN"
 "http://www.w3.org/TR/2001/REC-SVG-20010904/DTD/svg10.dtd">
<svg version="1.0" xmlns="http://www.w3.org/2000/svg"
 width="128.000000pt" height="100.000000pt" viewBox="0 0 128.000000 100.000000"
 preserveAspectRatio="xMidYMid meet">
<g transform="translate(0.000000,100.000000) scale(0.100000,-0.100000)"
fill="#eeeeee" stroke="none">
<path d="M238 973 c-9 -2 -21 -18 -28 -36 -28 -79 -32 -82 -92 -85 -64 -3 -86
-20 -95 -76 l-6 -36 623 0 623 0 -6 42 c-3 23 -14 48 -23 55 -13 10 -82 13
-278 13 -144 0 -267 4 -274 8 -7 5 -18 28 -25 53 -19 65 -33 69 -232 68 -93
-1 -177 -3 -187 -6z"/>
<path d="M20 365 l0 -345 620 0 620 0 0 345 0 345 -620 0 -620 0 0 -345z"/>
</g>
</svg>
