<?xml version="1.0" standalone="no"?>
<!DOCTYPE svg PUBLIC "-//W3C//DTD SVG 20010904//EN"
 "http://www.w3.org/TR/2001/REC-SVG-20010904/DTD/svg10.dtd">
<svg version="1.0" xmlns="http://www.w3.org/2000/svg"
 width="128.000000pt" height="128.000000pt" viewBox="0 0 128.000000 128.000000"
 preserveAspectRatio="xMidYMid meet">
<g transform="translate(0.000000,128.000000) scale(0.100000,-0.100000)"
fill="#111111" stroke="none">
<path d="M357 893 l-277 -277 37 -38 c20 -21 42 -38 48 -38 7 0 115 102 242
228 l230 227 234 -227 c128 -126 238 -228 244 -228 6 0 28 17 48 38 l37 38
-95 94 -95 95 0 122 0 123 -105 0 c-93 0 -105 -2 -105 -17 0 -11 -27 10 -78
60 -42 42 -80 77 -82 77 -3 0 -130 -125 -283 -277z"/>
<path d="M458 736 l-178 -174 0 -231 0 -232 138 3 137 3 3 168 2 167 80 0 80
0 0 -170 0 -170 140 0 140 0 0 231 0 232 -176 171 c-97 94 -179 172 -183 173
-3 1 -86 -76 -183 -171z"/>
</g>
</svg>
