<?xml version="1.0" standalone="no"?>
<!DOCTYPE svg PUBLIC "-//W3C//DTD SVG 20010904//EN"
 "http://www.w3.org/TR/2001/REC-SVG-20010904/DTD/svg10.dtd">
<svg version="1.0" xmlns="http://www.w3.org/2000/svg"
 width="128.000000pt" height="128.000000pt" viewBox="0 0 128.000000 128.000000"
 preserveAspectRatio="xMidYMid meet">
<g transform="translate(0.000000,128.000000) scale(0.100000,-0.100000)"
fill="#111111" stroke="none">
<path d="M112 1168 c-8 -8 -12 -54 -12 -139 0 -106 3 -128 16 -133 30 -12 249
-7 262 6 13 13 18 232 6 262 -5 13 -27 16 -133 16 -85 0 -131 -4 -139 -12z"/>
<path d="M496 1164 c-8 -20 -8 -238 0 -258 5 -13 27 -16 138 -16 89 0 136 4
144 12 17 17 17 249 0 266 -8 8 -55 12 -144 12 -111 0 -133 -3 -138 -16z"/>
<path d="M892 1160 c-15 -24 -17 -223 -2 -251 10 -17 22 -19 138 -19 86 0 132
4 140 12 18 18 16 245 -2 264 -11 11 -44 14 -138 14 -112 0 -124 -2 -136 -20z"/>
<path d="M113 783 c-18 -7 -18 -264 -1 -281 17 -17 249 -17 266 0 8 8 12 55
12 144 0 111 -3 133 -16 138 -19 7 -243 7 -261 -1z"/>
<path d="M497 783 c-13 -12 -8 -268 5 -281 8 -8 52 -12 133 -12 159 0 155 -4
155 156 0 80 -4 124 -12 132 -13 13 -269 18 -281 5z"/>
<path d="M890 771 c-5 -11 -10 -70 -10 -131 0 -61 5 -120 10 -131 10 -17 22
-19 138 -19 86 0 132 4 140 12 17 17 17 259 0 276 -8 8 -54 12 -140 12 -116 0
-128 -2 -138 -19z"/>
<path d="M118 386 c-15 -11 -18 -31 -18 -135 0 -93 3 -126 14 -137 19 -18 246
-20 264 -2 8 8 12 54 12 140 0 116 -2 128 -19 138 -29 15 -232 12 -253 -4z"/>
<path d="M508 389 c-16 -9 -18 -27 -18 -137 0 -86 4 -132 12 -140 17 -17 259
-17 276 0 8 8 12 54 12 140 0 116 -2 128 -19 138 -25 13 -240 13 -263 -1z"/>
<path d="M897 382 c-22 -24 -24 -237 -3 -264 11 -15 31 -18 135 -18 93 0 126
3 137 14 11 11 14 44 14 137 0 104 -3 124 -17 135 -13 9 -53 13 -134 14 -100
0 -118 -3 -132 -18z"/>
</g>
</svg>
