<?xml version="1.0" standalone="no"?>
<!DOCTYPE svg PUBLIC "-//W3C//DTD SVG 20010904//EN"
 "http://www.w3.org/TR/2001/REC-SVG-20010904/DTD/svg10.dtd">
<svg version="1.0" xmlns="http://www.w3.org/2000/svg"
 width="128.000000pt" height="128.000000pt" viewBox="0 0 128.000000 128.000000"
 preserveAspectRatio="xMidYMid meet">
<g transform="translate(0.000000,128.000000) scale(0.100000,-0.100000)"
fill="#eeeeee" stroke="none">
<path d="M535 1233 c-188 -44 -310 -125 -406 -266 -94 -141 -120 -346 -66
-514 118 -356 532 -518 872 -340 83 43 204 165 244 246 69 137 87 285 51 425
-29 113 -73 190 -160 276 -86 87 -163 131 -276 160 -72 19 -206 25 -259 13z
m214 -138 c259 -69 424 -331 355 -566 -74 -255 -331 -408 -577 -344 -77 20
-131 49 -195 102 -106 91 -164 213 -163 351 0 131 46 240 141 333 119 116 289
164 439 124z"/>
<path d="M490 634 c0 -241 2 -295 13 -292 30 7 467 283 464 293 -3 10 -454
293 -469 294 -5 1 -8 -132 -8 -295z"/>
</g>
</svg>
